<svg xmlns="http://www.w3.org/2000/svg" width="240.662" height="82.375"><g><path fill="#61A3C1" d="M65.815 14.592c-1.945-1.59-4.151-2.759-6.213-4.183-2.081-1.433-3.332-3.684-5.379-5.15-.135-.873-1.602-.799-1.684.209-.141 1.75-.226 3.508-.269 5.258-.116-.031-.25-.047-.402-.047-8.687 0-14.04 4.707-14.829 12.959h-.139v17.832c-3.385-2.526-7.58-4.026-12.116-4.026-11.188 0-20.286 9.1-20.286 20.287 0 11.185 9.099 20.286 20.286 20.286 4.536 0 8.731-1.498 12.116-4.023v5.432h9.303l-.23-54.596c.363-2.761 2.722-4.608 5.894-4.608.18 0 .332-.023.466-.065.055 1.769.129 3.541.205 5.311.034.763.883 1.084 1.441.598 1.738-1.502 3.231-3.229 4.875-4.825 2.088-2.021 4.704-3.616 6.963-5.459.33-.268.33-.919-.002-1.19zm-41.03 54.412c-6.215 0-11.271-5.056-11.271-11.271 0-6.214 5.056-11.271 11.271-11.271 6.213 0 11.271 5.058 11.271 11.271.001 6.215-5.057 11.271-11.271 11.271zm35.858-52.975l.256-.075-.608.396c.112-.116.228-.223.352-.321z"/><path d="M25.02 48.247c-5.438 0-9.863 4.427-9.863 9.86 0 5.438 4.425 9.861 9.863 9.861 5.437 0 9.858-4.423 9.858-9.861 0-5.433-4.421-9.86-9.858-9.86z" fill="none"/><path d="M25.02 45.432c-6.992 0-12.679 5.688-12.679 12.676 0 6.993 5.687 12.683 12.679 12.683 6.988 0 12.678-5.689 12.678-12.683.001-6.989-5.688-12.676-12.678-12.676z" fill="none"/><g fill="#3D7899"><path d="M25.02 45.432c-6.992 0-12.679 5.688-12.679 12.676 0 6.993 5.687 12.683 12.679 12.683 6.988 0 12.678-5.689 12.678-12.683.001-6.989-5.688-12.676-12.678-12.676zm0 22.537c-5.438 0-9.863-4.423-9.863-9.861 0-5.434 4.425-9.86 9.863-9.86 5.437 0 9.858 4.427 9.858 9.86 0 5.438-4.421 9.861-9.858 9.861zM66.091 14.223c-3.879-3.779-8.4-6.788-12.4-10.427-.918-.834-2.234.267-1.824 1.191-.043.126-.061.269-.05.43.1 1.411.168 2.819.228 4.229-8.964.022-14.734 4.719-16.012 12.961h-.048c-.045.308-.125.609-.253.887v15.746c-3.252-1.856-6.905-2.828-10.707-2.828-11.965 0-21.696 9.732-21.696 21.694 0 11.961 9.731 21.697 21.696 21.697 3.802 0 7.455-.971 10.707-2.83v2.548h2.817v-7.964l-2.252 1.682c-3.278 2.452-7.176 3.745-11.271 3.745-10.409 0-18.878-8.466-18.878-18.878 0-10.409 8.469-18.875 18.878-18.875 4.095 0 7.994 1.294 11.271 3.743l2.252 1.682v-19.231l.13-1.274c.71-7.397 5.318-11.529 13.043-11.677.13-.065.265-.122.414-.166.202-.062.417-.1.652-.117.291-.2.594-.386.905-.559.165-.221.364-.412.605-.568l-.007-.228c-.043-1.261-.104-2.513-.178-3.774 3.171 2.661 6.526 5.096 9.563 7.909-2.941 2.509-6.684 5.216-9.042 8.511-.035-.895-.065-1.786-.093-2.679l-.009-.313-.009-.293-.018-.665c-.017.295-.032.592-.039.874l-.009.027c-.119-1.242-1.146-1.349-2.162-1.351l-.387.002h-.009l-.014.113c-3.794.082-6.624 2.404-7.077 5.828l-.011.095.22 50.775-.075.653.052.394.022.319-.022.287c-.011.142-.018.282-.047.417.057.519.1 1.036.125 1.556h2.781l-.237-54.214c.31-2.007 2.059-3.299 4.484-3.299l.275-.016c.061 1.895.148 3.792.285 5.685.085 1.204 1.817 1.538 2.158.291.751-2.741 3.219-4.908 5.205-6.811 1.951-1.87 4.054-3.578 6.066-5.382.44-.393.411-1.149.002-1.552z"/></g><path fill="#fff" d="M41.737 79.522c-.464 0-.842-.376-.846-.84l-.02-2.812c-.002-.467.371-.853.837-.853h.009c.461 0 .838.373.844.835l.022 2.814c.004.469-.371.851-.839.854l-.007.002z"/><path fill="#fff" d="M41.673 70.85c-.462 0-.839-.377-.844-.84l-.037-5.859c-.004-.469.374-.852.84-.852h.004c.467 0 .844.376.844.842l.041 5.856c.002.466-.373.849-.84.853h-.008zm-.069-11.72c-.465 0-.843-.376-.846-.84-.009-1.92-.02-3.888-.027-5.862-.002-.465.375-.849.842-.849h.004c.464 0 .844.375.844.842l.027 5.86c.004.466-.373.849-.84.849h-.004zm-.042-11.721c-.466 0-.848-.373-.848-.844-.005-2.011-.01-3.981-.01-5.861 0-.467.378-.845.844-.845.469 0 .847.38.849.845 0 1.88.002 3.846.009 5.856-.001.471-.378.849-.844.849zm-.005-11.717h-.004c-.466-.005-.842-.382-.838-.849.009-2.284.018-4.283.042-5.868.006-.464.383-.837.844-.837h.011c.466.009.842.391.835.857-.022 1.58-.037 3.573-.045 5.851-.001.468-.381.846-.845.846zm.589-11.675l-.208-.028c-.45-.11-.725-.57-.614-1.025.579-2.289 1.649-4.045 3.279-5.363.359-.294.893-.238 1.185.125.291.362.239.896-.125 1.188-1.333 1.083-2.218 2.542-2.702 4.462-.091.386-.435.641-.815.641z"/><path fill="#fff" d="M50.479 16.915c-.408 0-.77-.298-.831-.714-.072-.462.243-.894.703-.966.907-.141 1.893-.221 2.928-.237.443 0 .851.368.857.834.004.466-.366.851-.835.855-.956.014-1.856.087-2.689.217l-.133.011z"/><path fill="#61A3C1" d="M68.886 77.425c-2.827 0-5.484-.595-7.888-1.771-2.453-1.197-4.527-3.116-6.179-5.697-1.658-2.588-2.498-5.731-2.498-9.335 0-3.229.686-6.304 2.038-9.146 1.374-2.895 3.356-5.187 5.879-6.819 1.39-1.021 2.927-1.847 4.496-2.411 1.591-.57 3.333-.862 5.168-.862 3.436 0 6.481.696 9.052 2.066 2.637 1.409 4.704 3.633 6.148 6.613 1.013 2.722 1.502 5.449 1.502 8.224v3.486h-25.752c.196 1.999.805 3.758 1.817 5.242 1.184 1.737 2.348 2.706 3.465 2.888 1.821.293 2.577.352 2.889.352.73 0 1.487-.094 2.252-.291.735-.187 1.444-.42 2.12-.704l5.498-4.729 5.765 4.685-.859 1.119c-1.721 2.244-3.932 4.008-6.57 5.243-2.628 1.226-5.434 1.847-8.343 1.847zm9.151-22.625c-.356-1.526-1.026-2.828-2.031-3.947-1.262-1.408-2.835-2.093-4.815-2.093h-1.151c-2.069 0-3.803.693-5.297 2.124-1.131 1.079-2.031 2.393-2.689 3.916h15.983z"/><path fill="#3D7899" d="M69.905 42.833c3.207 0 5.996.631 8.371 1.897 2.372 1.266 4.213 3.256 5.523 5.964.903 2.438 1.357 4.975 1.357 7.589v2.032h-25.824c0 2.919.709 5.425 2.134 7.514 1.427 2.088 2.905 3.254 4.438 3.501 1.539.248 2.577.373 3.119.373.857 0 1.729-.116 2.607-.338.885-.223 1.73-.511 2.543-.869l4.743-4.08 3.728 3.03c-1.581 2.062-3.589 3.669-6.03 4.807-2.438 1.142-5.014 1.72-7.725 1.72-2.618 0-5.039-.545-7.252-1.626-2.216-1.084-4.076-2.806-5.592-5.177-1.515-2.365-2.27-5.216-2.27-8.557 0-3.021.629-5.86 1.897-8.517 1.268-2.661 3.051-4.736 5.354-6.225 1.356-.991 2.757-1.746 4.204-2.266 1.443-.514 3-.772 4.675-.772m-9.897 13.417h19.725c-.23-2.529-1.108-4.651-2.644-6.37-1.537-1.718-3.503-2.575-5.898-2.575h-1.151c-2.438 0-4.54.842-6.304 2.525-1.76 1.685-3.003 3.826-3.728 6.42m9.897-16.319c-2.007 0-3.91.321-5.657.948-1.677.604-3.314 1.479-4.868 2.607-2.721 1.777-4.85 4.256-6.328 7.37-1.447 3.035-2.182 6.318-2.182 9.766 0 3.888.918 7.296 2.729 10.121 1.793 2.806 4.068 4.9 6.761 6.22 2.606 1.271 5.474 1.92 8.528 1.92 3.121 0 6.138-.671 8.958-1.99 2.85-1.338 5.241-3.246 7.104-5.674l1.718-2.244-2.19-1.781-3.727-3.03-1.16-.944h8.465v-4.937c0-2.95-.519-5.845-1.536-8.6l-.048-.133-.061-.125c-1.578-3.265-3.861-5.709-6.772-7.262-2.785-1.479-6.058-2.232-9.734-2.232zm-5.386 13.416c.364-.509.773-.983 1.227-1.417 1.23-1.175 2.595-1.722 4.296-1.722h1.152c1.564 0 2.75.511 3.734 1.61.421.465.767.976 1.052 1.526h-11.461v.003zm-1.961 9.875h15.621l-1.155.995-4.399 3.785c-.547.218-1.115.406-1.702.551-.653.164-1.292.249-1.901.249-.135 0-.719-.026-2.657-.333-.32-.052-1.206-.378-2.502-2.275-.602-.891-1.037-1.876-1.305-2.972z"/><path fill="#61A3C1" d="M92.571 76.546l3.726-27.044h-5.577l.461-7.035 6.114-.005 1.288-12.608 8.53.006-1.424 12.604h6.836l-.462 7.038h-7.387c-.261 2.219-.609 5.067-1.04 8.543-.521 4.197-1.275 9.943-2.27 17.243l-.173 1.258h-8.622z"/><path fill="#3D7899" d="M99.891 31.307l5.594.003-1.422 12.607h6.909l-.271 4.132h-7.317c-.271 2.357-.669 5.629-1.186 9.819-.521 4.189-1.278 9.93-2.27 17.225h-5.691l3.727-27.046h-5.695l.271-4.134 6.064-.005 1.287-12.601m-2.622-2.905l-.265 2.608-1.021 9.998-3.446.005h-2.719l-.175 2.713-.271 4.134-.204 3.095h5.461l-3.271 23.74-.452 3.303h11.559999999999999l.341-2.515c.987-7.25 1.751-13.055 2.272-17.256.352-2.844.647-5.267.887-7.272h7.457000000000001l.178-2.711.27-4.132.203-3.094h-6.759l1.06-9.379.365-3.226-3.252-.005-5.596-.002h-2.624v-.004z"/><path fill="#61A3C1" d="M131.63 77.425c-4.701 0-8.668-1.521-11.783-4.533-3.128-3.021-4.713-6.855-4.713-11.394v-1.444l.037-.153c.035-.158.156-.875.519-4.045.313-2.775 2.384-5.869 6.323-9.464 3.896-3.552 8.433-5.352 13.486-5.352 4.656 0 8.637 1.544 11.845 4.597 3.222 3.063 4.852 6.946 4.852 11.531v.813c0 .408-.044.973-.145 1.69-.68 4.932-3.034 9.174-6.995 12.596-3.958 3.425-8.477 5.158-13.426 5.158zm3.896-28.465c-2.866 0-5.407.986-7.775 3.017-2.893 2.483-3.659 4.134-3.799 5.08-.324 2.288-.354 2.764-.354 2.857v.708c0 2.488.824 4.545 2.526 6.294 1.688 1.743 3.723 2.588 6.225 2.588 2.86 0 5.391-.984 7.73-3.013 2.33-2.017 3.641-4.376 4.005-7.206.078-.64.125-1.124.125-1.448 0-2.532-.815-4.599-2.497-6.327-1.663-1.715-3.69-2.55-6.186-2.55z"/><path fill="#3D7899" d="M135.499 42.495c4.292 0 7.904 1.397 10.841 4.194 2.937 2.795 4.407 6.289 4.407 10.48v.813c0 .359-.044.855-.136 1.488-.633 4.596-2.801 8.497-6.504 11.702-3.705 3.199-7.861 4.803-12.474 4.803-4.334 0-7.924-1.377-10.771-4.127-2.846-2.753-4.27-6.198-4.27-10.35v-1.282c.089-.406.27-1.804.541-4.194.271-2.39 2.227-5.24 5.862-8.555 3.632-3.317 7.799-4.972 12.504-4.972m-3.147 28.464c3.196 0 6.094-1.122 8.679-3.368 2.593-2.241 4.092-4.947 4.496-8.119.089-.725.138-1.269.138-1.631 0-2.901-.968-5.349-2.905-7.342-1.937-1.992-4.35-2.992-7.229-2.992-3.201 0-6.106 1.122-8.722 3.365-2.612 2.242-4.043 4.236-4.288 5.98-.248 1.748-.373 2.764-.373 3.057v.713c0 2.857.979 5.292 2.938 7.309 1.961 2.014 4.38 3.028 7.266 3.028m3.147-31.369c-5.427 0-10.289 1.928-14.463 5.731-4.211 3.839-6.432 7.232-6.789 10.374-.353 3.119-.467 3.776-.493 3.9l-.06.291-.008.331v1.283c0 4.944 1.736 9.132 5.157 12.438 3.395 3.281 7.701 4.945 12.79 4.945 5.305 0 10.139-1.853 14.371-5.512 4.238-3.663 6.755-8.204 7.483-13.502.111-.762.162-1.386.162-1.884v-.812c0-5.001-1.786-9.235-5.305-12.589-3.486-3.313-7.807-4.994-12.845-4.994zm-3.147 28.463c-2.115 0-3.761-.682-5.183-2.144-1.426-1.466-2.117-3.192-2.117-5.28v-.715c0-.016.033-.491.34-2.648.051-.362.439-1.726 3.306-4.186 2.093-1.795 4.323-2.668 6.829-2.668 2.083 0 3.767.691 5.146 2.113 1.401 1.441 2.084 3.181 2.084 5.315 0 .111-.009.453-.113 1.277-.315 2.446-1.464 4.508-3.515 6.282-2.06 1.788-4.278 2.654-6.777 2.654z"/><path fill="#61A3C1" d="M170.127 77.627c-1.835 0-3.634-.311-5.34-.933-1.73-.624-3.311-1.575-4.71-2.823-1.262-1.311-2.126-2.71-2.644-4.243-.502-1.478-.755-3.128-.755-4.907l2.816-22.123h8.586l-2.703 22.294c.013 1.497.479 2.704 1.435 3.519 1.026.871 2.262 1.293 3.776 1.293 1.396 0 2.644-.311 3.816-.955 1.103-.608 1.924-1.431 2.515-2.519l.6-1.835 2.95-21.797 8.317-.005-3.141 24.412-.045.131c-1.049 3.201-3.046 5.784-5.936 7.677-2.851 1.871-6.059 2.814-9.537 2.814z"/><path fill="#3D7899" d="M166.443 44.051l-2.505 20.668c0 2.104.642 3.703 1.937 4.798 1.289 1.096 2.861 1.645 4.714 1.645 1.631 0 3.137-.378 4.517-1.138 1.375-.76 2.43-1.835 3.156-3.219l.68-2.082 2.797-20.666 5.398-.002-2.912 22.637c-.951 2.89-2.737 5.198-5.356 6.913-2.621 1.717-5.538 2.577-8.745 2.577-1.671 0-3.286-.282-4.848-.847-1.555-.566-2.968-1.413-4.231-2.541-1.04-1.087-1.786-2.295-2.237-3.626-.449-1.333-.678-2.814-.678-4.442l2.644-20.671 5.669-.004m3.28-2.908l-3.276.002h-8.227l-.324 2.537-2.644 20.673-.026.185v.184c0 1.938.284 3.746.835 5.376.587 1.733 1.56 3.314 2.893 4.703l.075.08.085.075c1.532 1.371 3.276 2.415 5.181 3.104 1.865.678 3.829 1.021 5.833 1.021 3.764 0 7.242-1.025 10.33-3.052 3.177-2.079 5.371-4.918 6.526-8.438l.084-.262.038-.271 2.912-22.637.425-3.277h-3.304l-5.4.003h-2.534l-.338 2.515-2.764 20.406-.511 1.572c-.453.784-1.073 1.384-1.884 1.835-.951.52-1.968.775-3.114.775-1.171 0-2.07-.302-2.835-.953-.378-.315-.88-.92-.911-2.421l2.484-20.482.391-3.253z"/><path fill="#61A3C1" d="M195.447 42.331h8.459l-.298 2.146c.313-.275.631-.537.962-.793 1.859-1.439 3.832-2.17 5.871-2.17h.782l.106.016c.711.104 1.249.212 1.604.312.343.095.913.286 1.72.57l1.319.471-2.719 8.684-1.635-1.188c-.462-.338-.924-.582-1.375-.722-.467-.145-.924-.22-1.366-.22-1.053 0-2.055.368-3.079 1.119-1.093.807-2.013 1.84-2.724 3.068-.64 1.461-1.128 3.167-1.375 4.934l-2.117 17.984-8.552.016 4.417-34.227z"/><path fill="#3D7899" d="M211.117 42.971c.635.094 1.108.183 1.426.267.315.091.857.273 1.626.547l-1.697 5.418c-.588-.429-1.184-.74-1.795-.931-.612-.191-1.213-.285-1.799-.285-1.359 0-2.67.465-3.935 1.396-1.269.936-2.308 2.105-3.121 3.512-.771 1.73-1.288 3.548-1.563 5.454l-1.966 16.74-5.609.014 4.038-31.32h5.519l-.746 5.418c1.039-1.666 2.363-3.127 3.967-4.369s3.264-1.863 4.98-1.863h.676m.212-2.907h-.889c-1.701 0-3.354.431-4.934 1.277l.064-.463h-11.405999999999999l-.326 2.536-4.038 31.315-.423 3.285 3.308-.007 5.607-.011 2.579-.004.3-2.56 1.971-16.738c.215-1.516.642-3.039 1.264-4.47.604-1.009 1.347-1.828 2.255-2.497.76-.56 1.483-.833 2.215-.833.293 0 .602.047.929.153.302.094.622.263.955.507l3.274 2.386 1.208-3.865 1.697-5.421.836-2.67-2.64-.933c-.844-.3-1.444-.498-1.79-.601-.458-.127-1.026-.236-1.809-.353l-.207-.033z"/><path fill="#61A3C1" d="M224.25 77.461c-.218 0-.476-.014-.769-.04-.662-.062-1.3-.227-1.906-.489-.724-.311-1.395-.899-1.999-1.746-.626-.875-.946-1.865-.946-2.94 0-1.516.573-3.621 3.297-5.021l.096-.049.108-.036c.547-.182 1.138-.279 1.748-.279.562 0 1.131.098 1.682.279 1.155.449 2.037 1.16 2.684 2.135.631.965.948 2.033.948 3.175 0 1.277-.353 2.377-1.055 3.268-.742.939-1.835 1.511-3.257 1.695-.098.024-.338.048-.631.048z"/><path fill="#3D7899" d="M223.879 68.317c.406 0 .811.066 1.22.202.811.317 1.457.838 1.933 1.562.476.722.711 1.511.711 2.373 0 .946-.249 1.739-.746 2.367-.498.634-1.267 1.021-2.307 1.155-.113.024-.257.033-.439.033-.18 0-.396-.009-.642-.033-.5-.046-.984-.169-1.46-.373s-.938-.619-1.389-1.253c-.45-.631-.677-1.333-.677-2.102 0-1.626.835-2.867 2.506-3.728.408-.14.837-.203 1.29-.203m0-2.905c-.771 0-1.511.119-2.21.353l-.211.069-.195.098c-2.633 1.355-4.086 3.599-4.086 6.313 0 1.384.413 2.661 1.22 3.794.756 1.062 1.633 1.809 2.605 2.229.742.319 1.528.521 2.328.6.367.033.669.042.916.042.33 0 .617-.018.889-.064 2.217-.309 3.474-1.38 4.141-2.229.906-1.152 1.37-2.554 1.37-4.167 0-1.431-.399-2.764-1.188-3.963-.815-1.244-1.928-2.137-3.306-2.675l-.066-.024-.062-.022c-.703-.235-1.422-.354-2.145-.354z"/><polygon fill="#61A3C1" points="226.32,6.326 238.921,6.324 228.951,60.404 220.442,60.409"/><path fill="#3D7899" d="M237.175 7.774l-9.433 51.178-5.678.002 5.562-51.178 9.549-.002m3.487-2.902h-3.487l-9.548.002-2.606.002-.281 2.587-5.562 51.177-.347 3.224 3.234-.002 5.678-.005 2.417-.005.436-2.376 9.433-51.176.633-3.428z"/><path fill="#fff" d="M225.805 56.344l-.119-.009c-.512-.066-.871-.535-.8-1.044l.72-5.434c.066-.509.537-.857 1.046-.805.514.071.871.542.802 1.049l-.72 5.432c-.062.473-.466.816-.929.811zm1.584-11.901l-.122-.007c-.509-.068-.866-.537-.802-1.046l.862-6.47c.07-.513.542-.86 1.048-.801.514.066.873.535.803 1.046l-.862 6.467c-.063.472-.467.813-.927.811zm1.721-12.938l-.12-.007c-.511-.071-.866-.536-.802-1.049l.864-6.467c.066-.513.538-.86 1.049-.804.509.069.866.54.8 1.047l-.862 6.47c-.062.473-.467.812-.929.81zm1.724-12.937l-.119-.007c-.512-.069-.871-.54-.8-1.046l.857-6.467c.068-.512.544-.862 1.048-.803.512.069.871.538.805 1.048l-.862 6.468c-.062.468-.466.809-.929.807z"/></g></svg>