<?xml version="1.0" encoding="utf-8"?>
<!-- Generator: Adobe Illustrator 16.0.0, SVG Export Plug-In . SVG Version: 6.00 Build 0)  -->
<!DOCTYPE svg PUBLIC "-//W3C//DTD SVG 1.1//EN" "http://www.w3.org/Graphics/SVG/1.1/DTD/svg11.dtd">
<svg version="1.1" id="Layer_1" xmlns="http://www.w3.org/2000/svg" xmlns:xlink="http://www.w3.org/1999/xlink" x="0px" y="0px"
	 width="240.662px" height="82.375px" viewBox="0 0 240.662 82.375" enable-background="new 0 0 240.662 82.375"
	 xml:space="preserve">
<g id="Layer_1_1_">
	<g>
		<g>
			<path fill="#61A3C1" d="M65.815,14.592c-1.945-1.59-4.151-2.759-6.213-4.183c-2.081-1.433-3.332-3.684-5.379-5.15
				c-0.135-0.873-1.602-0.799-1.684,0.209c-0.141,1.75-0.226,3.508-0.269,5.258c-0.116-0.031-0.25-0.047-0.402-0.047
				c-8.687,0-14.04,4.707-14.829,12.959h-0.139V41.47c-3.385-2.526-7.58-4.026-12.116-4.026c-11.188,0-20.286,9.1-20.286,20.287
				c0,11.185,9.099,20.286,20.286,20.286c4.536,0,8.731-1.498,12.116-4.023v5.432h9.303L45.973,24.83
				c0.363-2.761,2.722-4.608,5.894-4.608c0.18,0,0.332-0.023,0.466-0.065c0.055,1.769,0.129,3.541,0.205,5.311
				c0.034,0.763,0.883,1.084,1.441,0.598c1.738-1.502,3.231-3.229,4.875-4.825c2.088-2.021,4.704-3.616,6.963-5.459
				C66.147,15.514,66.147,14.863,65.815,14.592z M24.785,69.004c-6.215,0-11.271-5.056-11.271-11.271
				c0-6.214,5.056-11.271,11.271-11.271c6.213,0,11.271,5.058,11.271,11.271C36.057,63.948,30.999,69.004,24.785,69.004z
				 M60.643,16.029c0.089-0.022,0.173-0.048,0.256-0.075c-0.202,0.13-0.404,0.261-0.608,0.396
				C60.403,16.234,60.519,16.127,60.643,16.029z"/>
			<path fill="none" d="M25.02,48.247c-5.438,0-9.863,4.427-9.863,9.86c0,5.438,4.425,9.861,9.863,9.861
				c5.437,0,9.858-4.423,9.858-9.861C34.878,52.674,30.457,48.247,25.02,48.247z"/>
			<path fill="none" d="M25.02,45.432c-6.992,0-12.679,5.688-12.679,12.676c0,6.993,5.687,12.683,12.679,12.683
				c6.988,0,12.678-5.689,12.678-12.683C37.699,51.119,32.01,45.432,25.02,45.432z"/>
			<g>
				<path fill="#3D7899" d="M25.02,45.432c-6.992,0-12.679,5.688-12.679,12.676c0,6.993,5.687,12.683,12.679,12.683
					c6.988,0,12.678-5.689,12.678-12.683C37.699,51.119,32.01,45.432,25.02,45.432z M25.02,67.969c-5.438,0-9.863-4.423-9.863-9.861
					c0-5.434,4.425-9.86,9.863-9.86c5.437,0,9.858,4.427,9.858,9.86C34.878,63.546,30.457,67.969,25.02,67.969z"/>
				<path fill="#3D7899" d="M66.091,14.223c-3.879-3.779-8.4-6.788-12.4-10.427c-0.918-0.834-2.234,0.267-1.824,1.191
					c-0.043,0.126-0.061,0.269-0.05,0.43c0.1,1.411,0.168,2.819,0.228,4.229c-8.964,0.022-14.734,4.719-16.012,12.961h-0.048
					c-0.045,0.308-0.125,0.609-0.253,0.887v15.746c-3.252-1.856-6.905-2.828-10.707-2.828c-11.965,0-21.696,9.732-21.696,21.694
					c0,11.961,9.731,21.697,21.696,21.697c3.802,0,7.455-0.971,10.707-2.83v2.548h2.817v-7.964l-2.252,1.682
					c-3.278,2.452-7.176,3.745-11.271,3.745c-10.409,0-18.878-8.466-18.878-18.878c0-10.409,8.469-18.875,18.878-18.875
					c4.095,0,7.994,1.294,11.271,3.743l2.252,1.682V25.425l0.13-1.274c0.71-7.397,5.318-11.529,13.043-11.677
					c0.13-0.065,0.265-0.122,0.414-0.166c0.202-0.062,0.417-0.1,0.652-0.117c0.291-0.2,0.594-0.386,0.905-0.559
					c0.165-0.221,0.364-0.412,0.605-0.568c0-0.076-0.004-0.151-0.007-0.228c-0.043-1.261-0.104-2.513-0.178-3.774
					c3.171,2.661,6.526,5.096,9.563,7.909c-2.941,2.509-6.684,5.216-9.042,8.511c-0.035-0.895-0.065-1.786-0.093-2.679
					c-0.002-0.102-0.006-0.208-0.009-0.313c-0.002-0.098-0.007-0.194-0.009-0.293c-0.004-0.222-0.013-0.443-0.018-0.665
					c-0.017,0.295-0.032,0.592-0.039,0.874c-0.002,0.012-0.007,0.018-0.009,0.027c-0.119-1.242-1.146-1.349-2.162-1.351
					c-0.13,0-0.256,0.002-0.387,0.002c-0.002,0-0.004,0-0.009,0c-0.005,0.037-0.01,0.079-0.014,0.113
					c-3.794,0.082-6.624,2.404-7.077,5.828l-0.011,0.095l0.22,50.775c-0.024,0.218-0.05,0.436-0.075,0.653
					c0.031,0.129,0.039,0.263,0.052,0.394c0.009,0.106,0.022,0.211,0.022,0.319c0,0.096-0.013,0.191-0.022,0.287
					c-0.011,0.142-0.018,0.282-0.047,0.417c0.057,0.519,0.1,1.036,0.125,1.556h2.781l-0.237-54.214
					c0.31-2.007,2.059-3.299,4.484-3.299c0.098,0,0.187-0.007,0.275-0.016c0.061,1.895,0.148,3.792,0.285,5.685
					c0.085,1.204,1.817,1.538,2.158,0.291c0.751-2.741,3.219-4.908,5.205-6.811c1.951-1.87,4.054-3.578,6.066-5.382
					C66.529,15.382,66.5,14.626,66.091,14.223z"/>
			</g>
			<g>
				<g>
					<path fill="#FFFFFF" d="M41.737,79.522c-0.464,0-0.842-0.376-0.846-0.84l-0.02-2.812c-0.002-0.467,0.371-0.853,0.837-0.853
						c0.004,0,0.004,0,0.009,0c0.461,0,0.838,0.373,0.844,0.835l0.022,2.814c0.004,0.469-0.371,0.851-0.839,0.854
						C41.744,79.522,41.739,79.522,41.737,79.522z"/>
				</g>
				<g>
					<path fill="#FFFFFF" d="M41.673,70.85c-0.462,0-0.839-0.377-0.844-0.84l-0.037-5.859c-0.004-0.469,0.374-0.852,0.84-0.852
						h0.004c0.467,0,0.844,0.376,0.844,0.842l0.041,5.856c0.002,0.466-0.373,0.849-0.84,0.853
						C41.678,70.85,41.678,70.85,41.673,70.85z M41.604,59.13c-0.465,0-0.843-0.376-0.846-0.84c-0.009-1.92-0.02-3.888-0.027-5.862
						c-0.002-0.465,0.375-0.849,0.842-0.849c0.002,0,0.002,0,0.004,0c0.464,0,0.844,0.375,0.844,0.842
						c0.009,1.971,0.018,3.94,0.027,5.86c0.004,0.466-0.373,0.849-0.84,0.849C41.607,59.13,41.604,59.13,41.604,59.13z
						 M41.562,47.409c-0.466,0-0.848-0.373-0.848-0.844c-0.005-2.011-0.01-3.981-0.01-5.861c0-0.467,0.378-0.845,0.844-0.845l0,0
						c0.469,0,0.847,0.38,0.849,0.845c0,1.88,0.002,3.846,0.009,5.856C42.405,47.031,42.028,47.409,41.562,47.409L41.562,47.409z
						 M41.557,35.692c0,0-0.002,0-0.004,0c-0.466-0.005-0.842-0.382-0.838-0.849c0.009-2.284,0.018-4.283,0.042-5.868
						c0.006-0.464,0.383-0.837,0.844-0.837c0.002,0,0.007,0,0.011,0c0.466,0.009,0.842,0.391,0.835,0.857
						c-0.022,1.58-0.037,3.573-0.045,5.851C42.401,35.314,42.021,35.692,41.557,35.692z M42.146,24.017
						c-0.066,0-0.139-0.009-0.208-0.028c-0.45-0.11-0.725-0.57-0.614-1.025c0.579-2.289,1.649-4.045,3.279-5.363
						c0.359-0.294,0.893-0.238,1.185,0.125c0.291,0.362,0.239,0.896-0.125,1.188c-1.333,1.083-2.218,2.542-2.702,4.462
						C42.87,23.762,42.526,24.017,42.146,24.017z"/>
				</g>
				<g>
					<path fill="#FFFFFF" d="M50.479,16.915c-0.408,0-0.77-0.298-0.831-0.714c-0.072-0.462,0.243-0.894,0.703-0.966
						c0.907-0.141,1.893-0.221,2.928-0.237c0.443,0,0.851,0.368,0.857,0.834c0.004,0.466-0.366,0.851-0.835,0.855
						c-0.956,0.014-1.856,0.087-2.689,0.217C50.567,16.912,50.522,16.915,50.479,16.915z"/>
				</g>
			</g>
		</g>
		<g>
			<path fill="#61A3C1" d="M68.886,77.425c-2.827,0-5.484-0.595-7.888-1.771c-2.453-1.197-4.527-3.116-6.179-5.697
				c-1.658-2.588-2.498-5.731-2.498-9.335c0-3.229,0.686-6.304,2.038-9.146c1.374-2.895,3.356-5.187,5.879-6.819
				c1.39-1.021,2.927-1.847,4.496-2.411c1.591-0.57,3.333-0.862,5.168-0.862c3.436,0,6.481,0.696,9.052,2.066
				c2.637,1.409,4.704,3.633,6.148,6.613c1.013,2.722,1.502,5.449,1.502,8.224v3.486H60.852c0.196,1.999,0.805,3.758,1.817,5.242
				c1.184,1.737,2.348,2.706,3.465,2.888c1.821,0.293,2.577,0.352,2.889,0.352c0.73,0,1.487-0.094,2.252-0.291
				c0.735-0.187,1.444-0.42,2.12-0.704l5.498-4.729l5.765,4.685l-0.859,1.119c-1.721,2.244-3.932,4.008-6.57,5.243
				C74.601,76.804,71.795,77.425,68.886,77.425z M78.037,54.8c-0.356-1.526-1.026-2.828-2.031-3.947
				c-1.262-1.408-2.835-2.093-4.815-2.093h-1.151c-2.069,0-3.803,0.693-5.297,2.124c-1.131,1.079-2.031,2.393-2.689,3.916H78.037z"
				/>
			<path fill="#3D7899" d="M69.905,42.833c3.207,0,5.996,0.631,8.371,1.897c2.372,1.266,4.213,3.256,5.523,5.964
				c0.903,2.438,1.357,4.975,1.357,7.589c0,0.362,0,0.737,0,1.117c0,0.387,0,0.691,0,0.915H59.332c0,2.919,0.709,5.425,2.134,7.514
				c1.427,2.088,2.905,3.254,4.438,3.501c1.539,0.248,2.577,0.373,3.119,0.373c0.857,0,1.729-0.116,2.607-0.338
				c0.885-0.223,1.73-0.511,2.543-0.869l4.743-4.08l3.728,3.03c-1.581,2.062-3.589,3.669-6.03,4.807
				c-2.438,1.142-5.014,1.72-7.725,1.72c-2.618,0-5.039-0.545-7.252-1.626c-2.216-1.084-4.076-2.806-5.592-5.177
				c-1.515-2.365-2.27-5.216-2.27-8.557c0-3.021,0.629-5.86,1.897-8.517c1.268-2.661,3.051-4.736,5.354-6.225
				c1.356-0.991,2.757-1.746,4.204-2.266C66.673,43.091,68.23,42.833,69.905,42.833 M60.008,56.25h19.725
				c-0.23-2.529-1.108-4.651-2.644-6.37c-1.537-1.718-3.503-2.575-5.898-2.575c-0.498,0-0.881,0-1.151,0
				c-2.438,0-4.54,0.842-6.304,2.525C61.976,51.515,60.733,53.656,60.008,56.25 M69.905,39.931c-2.007,0-3.91,0.321-5.657,0.948
				c-1.677,0.604-3.314,1.479-4.868,2.607c-2.721,1.777-4.85,4.256-6.328,7.37c-1.447,3.035-2.182,6.318-2.182,9.766
				c0,3.888,0.918,7.296,2.729,10.121c1.793,2.806,4.068,4.9,6.761,6.22c2.606,1.271,5.474,1.92,8.528,1.92
				c3.121,0,6.138-0.671,8.958-1.99c2.85-1.338,5.241-3.246,7.104-5.674l1.718-2.244l-2.19-1.781l-3.727-3.03l-1.16-0.944h5.562
				h2.903v-2.903V59.4v-1.117c0-2.95-0.519-5.845-1.536-8.6l-0.048-0.133l-0.061-0.125c-1.578-3.265-3.861-5.709-6.772-7.262
				C76.854,40.684,73.581,39.931,69.905,39.931L69.905,39.931z M64.519,53.347c0.364-0.509,0.773-0.983,1.227-1.417
				c1.23-1.175,2.595-1.722,4.296-1.722h1.152c1.564,0,2.75,0.511,3.734,1.61c0.421,0.465,0.767,0.976,1.052,1.526H64.519V53.347z
				 M62.558,63.222h15.621l-1.155,0.995l-4.399,3.785c-0.547,0.218-1.115,0.406-1.702,0.551c-0.653,0.164-1.292,0.249-1.901,0.249
				c-0.135,0-0.719-0.026-2.657-0.333c-0.32-0.052-1.206-0.378-2.502-2.275C63.261,65.303,62.826,64.318,62.558,63.222
				L62.558,63.222z"/>
		</g>
		<g>
			<path fill="#61A3C1" d="M92.571,76.546l3.726-27.044H90.72l0.461-7.035l6.114-0.005l1.288-12.608l8.53,0.006l-1.424,12.604h6.836
				l-0.462,7.038h-7.387c-0.261,2.219-0.609,5.067-1.04,8.543c-0.521,4.197-1.275,9.943-2.27,17.243l-0.173,1.258H92.571z"/>
			<path fill="#3D7899" d="M99.891,31.307l5.594,0.003l-1.422,12.607h6.909l-0.271,4.132h-7.317
				c-0.271,2.357-0.669,5.629-1.186,9.819c-0.521,4.189-1.278,9.93-2.27,17.225h-5.691l3.727-27.046h-5.695l0.271-4.134l6.064-0.005
				L99.891,31.307 M97.269,28.402l-0.265,2.608l-1.021,9.998l-3.446,0.005h-2.719l-0.175,2.713l-0.271,4.134l-0.204,3.095h3.1h2.361
				l-3.271,23.74l-0.452,3.303h3.332h5.691h2.537l0.341-2.515c0.987-7.25,1.751-13.055,2.272-17.256
				c0.352-2.844,0.647-5.267,0.887-7.272h4.735h2.722l0.178-2.711l0.27-4.132l0.203-3.094h-3.101h-3.658l1.06-9.379l0.365-3.226
				l-3.252-0.005l-5.596-0.002h-2.624V28.402z"/>
		</g>
		<g>
			<path fill="#61A3C1" d="M131.63,77.425c-4.701,0-8.668-1.521-11.783-4.533c-3.128-3.021-4.713-6.855-4.713-11.394v-1.444
				l0.037-0.153c0.035-0.158,0.156-0.875,0.519-4.045c0.313-2.775,2.384-5.869,6.323-9.464c3.896-3.552,8.433-5.352,13.486-5.352
				c4.656,0,8.637,1.544,11.845,4.597c3.222,3.063,4.852,6.946,4.852,11.531v0.813c0,0.408-0.044,0.973-0.145,1.69
				c-0.68,4.932-3.034,9.174-6.995,12.596C141.098,75.692,136.579,77.425,131.63,77.425z M135.526,48.96
				c-2.866,0-5.407,0.986-7.775,3.017c-2.893,2.483-3.659,4.134-3.799,5.08c-0.324,2.288-0.354,2.764-0.354,2.857v0.708
				c0,2.488,0.824,4.545,2.526,6.294c1.688,1.743,3.723,2.588,6.225,2.588c2.86,0,5.391-0.984,7.73-3.013
				c2.33-2.017,3.641-4.376,4.005-7.206c0.078-0.64,0.125-1.124,0.125-1.448c0-2.532-0.815-4.599-2.497-6.327
				C140.049,49.795,138.022,48.96,135.526,48.96z"/>
			<path fill="#3D7899" d="M135.499,42.495c4.292,0,7.904,1.397,10.841,4.194c2.937,2.795,4.407,6.289,4.407,10.48v0.813
				c0,0.359-0.044,0.855-0.136,1.488c-0.633,4.596-2.801,8.497-6.504,11.702c-3.705,3.199-7.861,4.803-12.474,4.803
				c-4.334,0-7.924-1.377-10.771-4.127c-2.846-2.753-4.27-6.198-4.27-10.35c0-0.406,0-0.833,0-1.282
				c0.089-0.406,0.27-1.804,0.541-4.194c0.271-2.39,2.227-5.24,5.862-8.555C126.627,44.15,130.794,42.495,135.499,42.495
				 M132.352,70.959c3.196,0,6.094-1.122,8.679-3.368c2.593-2.241,4.092-4.947,4.496-8.119c0.089-0.725,0.138-1.269,0.138-1.631
				c0-2.901-0.968-5.349-2.905-7.342c-1.937-1.992-4.35-2.992-7.229-2.992c-3.201,0-6.106,1.122-8.722,3.365
				c-2.612,2.242-4.043,4.236-4.288,5.98c-0.248,1.748-0.373,2.764-0.373,3.057c0,0.296,0,0.535,0,0.713
				c0,2.857,0.979,5.292,2.938,7.309C127.047,69.945,129.466,70.959,132.352,70.959 M135.499,39.59
				c-5.427,0-10.289,1.928-14.463,5.731c-4.211,3.839-6.432,7.232-6.789,10.374c-0.353,3.119-0.467,3.776-0.493,3.9l-0.06,0.291
				l-0.008,0.331V61.5c0,4.944,1.736,9.132,5.157,12.438c3.395,3.281,7.701,4.945,12.79,4.945c5.305,0,10.139-1.853,14.371-5.512
				c4.238-3.663,6.755-8.204,7.483-13.502c0.111-0.762,0.162-1.386,0.162-1.884v-0.812c0-5.001-1.786-9.235-5.305-12.589
				C144.858,41.271,140.537,39.59,135.499,39.59L135.499,39.59z M132.352,68.053c-2.115,0-3.761-0.682-5.183-2.144
				c-1.426-1.466-2.117-3.192-2.117-5.28v-0.715c0-0.016,0.033-0.491,0.34-2.648c0.051-0.362,0.439-1.726,3.306-4.186
				c2.093-1.795,4.323-2.668,6.829-2.668c2.083,0,3.767,0.691,5.146,2.113c1.401,1.441,2.084,3.181,2.084,5.315
				c0,0.111-0.009,0.453-0.113,1.277c-0.315,2.446-1.464,4.508-3.515,6.282C137.069,67.187,134.851,68.053,132.352,68.053
				L132.352,68.053z"/>
		</g>
		<g>
			<path fill="#61A3C1" d="M170.127,77.627c-1.835,0-3.634-0.311-5.34-0.933c-1.73-0.624-3.311-1.575-4.71-2.823
				c-1.262-1.311-2.126-2.71-2.644-4.243c-0.502-1.478-0.755-3.128-0.755-4.907l2.816-22.123h8.586l-2.703,22.294
				c0.013,1.497,0.479,2.704,1.435,3.519c1.026,0.871,2.262,1.293,3.776,1.293c1.396,0,2.644-0.311,3.816-0.955
				c1.103-0.608,1.924-1.431,2.515-2.519l0.6-1.835l2.95-21.797l8.317-0.005l-3.141,24.412l-0.045,0.131
				c-1.049,3.201-3.046,5.784-5.936,7.677C176.813,76.684,173.605,77.627,170.127,77.627z"/>
			<path fill="#3D7899" d="M166.443,44.051l-2.505,20.668c0,2.104,0.642,3.703,1.937,4.798c1.289,1.096,2.861,1.645,4.714,1.645
				c1.631,0,3.137-0.378,4.517-1.138c1.375-0.76,2.43-1.835,3.156-3.219l0.68-2.082l2.797-20.666l5.398-0.002l-2.912,22.637
				c-0.951,2.89-2.737,5.198-5.356,6.913c-2.621,1.717-5.538,2.577-8.745,2.577c-1.671,0-3.286-0.282-4.848-0.847
				c-1.555-0.566-2.968-1.413-4.231-2.541c-1.04-1.087-1.786-2.295-2.237-3.626c-0.449-1.333-0.678-2.814-0.678-4.442l2.644-20.671
				L166.443,44.051 M169.723,41.143l-3.276,0.002h-5.669h-2.558l-0.324,2.537l-2.644,20.673l-0.026,0.185v0.184
				c0,1.938,0.284,3.746,0.835,5.376c0.587,1.733,1.56,3.314,2.893,4.703l0.075,0.08l0.085,0.075
				c1.532,1.371,3.276,2.415,5.181,3.104c1.865,0.678,3.829,1.021,5.833,1.021c3.764,0,7.242-1.025,10.33-3.052
				c3.177-2.079,5.371-4.918,6.526-8.438l0.084-0.262l0.038-0.271l2.912-22.637l0.425-3.277h-3.304l-5.4,0.003h-2.534l-0.338,2.515
				l-2.764,20.406l-0.511,1.572c-0.453,0.784-1.073,1.384-1.884,1.835c-0.951,0.52-1.968,0.775-3.114,0.775
				c-1.171,0-2.07-0.302-2.835-0.953c-0.378-0.315-0.88-0.92-0.911-2.421l2.484-20.482L169.723,41.143L169.723,41.143z"/>
		</g>
		<g>
			<path fill="#61A3C1" d="M195.447,42.331h8.459l-0.298,2.146c0.313-0.275,0.631-0.537,0.962-0.793
				c1.859-1.439,3.832-2.17,5.871-2.17h0.782l0.106,0.016c0.711,0.104,1.249,0.212,1.604,0.312c0.343,0.095,0.913,0.286,1.72,0.57
				l1.319,0.471l-2.719,8.684l-1.635-1.188c-0.462-0.338-0.924-0.582-1.375-0.722c-0.467-0.145-0.924-0.22-1.366-0.22
				c-1.053,0-2.055,0.368-3.079,1.119c-1.093,0.807-2.013,1.84-2.724,3.068c-0.64,1.461-1.128,3.167-1.375,4.934l-2.117,17.984
				l-8.552,0.016L195.447,42.331z"/>
			<path fill="#3D7899" d="M211.117,42.971c0.635,0.094,1.108,0.183,1.426,0.267c0.315,0.091,0.857,0.273,1.626,0.547l-1.697,5.418
				c-0.588-0.429-1.184-0.74-1.795-0.931c-0.612-0.191-1.213-0.285-1.799-0.285c-1.359,0-2.67,0.465-3.935,1.396
				c-1.269,0.936-2.308,2.105-3.121,3.512c-0.771,1.73-1.288,3.548-1.563,5.454l-1.966,16.74l-5.609,0.014l4.038-31.32h5.519
				l-0.746,5.418c1.039-1.666,2.363-3.127,3.967-4.369c1.604-1.242,3.264-1.863,4.98-1.863h0.676 M211.33,40.062h-0.213h-0.676
				c-1.701,0-3.354,0.431-4.934,1.277l0.064-0.463h-3.332h-5.519h-2.555l-0.326,2.536l-4.038,31.315l-0.423,3.285l3.308-0.007
				l5.607-0.011l2.579-0.004l0.3-2.56l1.971-16.738c0.215-1.516,0.642-3.039,1.264-4.47c0.604-1.009,1.347-1.828,2.255-2.497
				c0.76-0.56,1.483-0.833,2.215-0.833c0.293,0,0.602,0.047,0.929,0.153c0.302,0.094,0.622,0.263,0.955,0.507l3.274,2.386
				l1.208-3.865l1.697-5.421l0.836-2.67l-2.64-0.933c-0.844-0.3-1.444-0.498-1.79-0.601c-0.458-0.127-1.026-0.236-1.809-0.353
				L211.33,40.062L211.33,40.062z"/>
		</g>
		<g>
			<path fill="#61A3C1" d="M224.25,77.461c-0.218,0-0.476-0.014-0.769-0.04c-0.662-0.062-1.3-0.227-1.906-0.489
				c-0.724-0.311-1.395-0.899-1.999-1.746c-0.626-0.875-0.946-1.865-0.946-2.94c0-1.516,0.573-3.621,3.297-5.021l0.096-0.049
				l0.108-0.036c0.547-0.182,1.138-0.279,1.748-0.279c0.562,0,1.131,0.098,1.682,0.279c1.155,0.449,2.037,1.16,2.684,2.135
				c0.631,0.965,0.948,2.033,0.948,3.175c0,1.277-0.353,2.377-1.055,3.268c-0.742,0.939-1.835,1.511-3.257,1.695
				C224.783,77.437,224.543,77.461,224.25,77.461z"/>
			<path fill="#3D7899" d="M223.879,68.317c0.406,0,0.811,0.066,1.22,0.202c0.811,0.317,1.457,0.838,1.933,1.562
				c0.476,0.722,0.711,1.511,0.711,2.373c0,0.946-0.249,1.739-0.746,2.367c-0.498,0.634-1.267,1.021-2.307,1.155
				c-0.113,0.024-0.257,0.033-0.439,0.033c-0.18,0-0.396-0.009-0.642-0.033c-0.5-0.046-0.984-0.169-1.46-0.373
				s-0.938-0.619-1.389-1.253c-0.45-0.631-0.677-1.333-0.677-2.102c0-1.626,0.835-2.867,2.506-3.728
				C222.997,68.38,223.426,68.317,223.879,68.317 M223.879,65.412c-0.771,0-1.511,0.119-2.21,0.353l-0.211,0.069l-0.195,0.098
				c-2.633,1.355-4.086,3.599-4.086,6.313c0,1.384,0.413,2.661,1.22,3.794c0.756,1.062,1.633,1.809,2.605,2.229
				c0.742,0.319,1.528,0.521,2.328,0.6c0.367,0.033,0.669,0.042,0.916,0.042c0.33,0,0.617-0.018,0.889-0.064
				c2.217-0.309,3.474-1.38,4.141-2.229c0.906-1.152,1.37-2.554,1.37-4.167c0-1.431-0.399-2.764-1.188-3.963
				c-0.815-1.244-1.928-2.137-3.306-2.675l-0.066-0.024l-0.062-0.022C225.321,65.531,224.602,65.412,223.879,65.412L223.879,65.412z
				"/>
		</g>
		<g>
			<polygon fill="#61A3C1" points="226.32,6.326 238.921,6.324 228.951,60.404 220.442,60.409 			"/>
			<path fill="#3D7899" d="M237.175,7.774l-9.433,51.178l-5.678,0.002l5.562-51.178L237.175,7.774 M240.662,4.872h-3.487
				l-9.548,0.002l-2.606,0.002l-0.281,2.587l-5.562,51.177l-0.347,3.224l3.234-0.002l5.678-0.005l2.417-0.005l0.436-2.376
				L240.029,8.3L240.662,4.872L240.662,4.872z"/>
		</g>
		<g>
			<path fill="#FFFFFF" d="M225.805,56.344c-0.039,0-0.079,0-0.119-0.009c-0.512-0.066-0.871-0.535-0.8-1.044l0.72-5.434
				c0.066-0.509,0.537-0.857,1.046-0.805c0.514,0.071,0.871,0.542,0.802,1.049l-0.72,5.432
				C226.672,56.006,226.268,56.349,225.805,56.344z M227.389,44.443c-0.042,0-0.08-0.002-0.122-0.007
				c-0.509-0.068-0.866-0.537-0.802-1.046l0.862-6.47c0.07-0.513,0.542-0.86,1.048-0.801c0.514,0.066,0.873,0.535,0.803,1.046
				l-0.862,6.467C228.253,44.104,227.849,44.445,227.389,44.443z M229.11,31.505c-0.04,0-0.08-0.002-0.12-0.007
				c-0.511-0.071-0.866-0.536-0.802-1.049l0.864-6.467c0.066-0.513,0.538-0.86,1.049-0.804c0.509,0.069,0.866,0.54,0.8,1.047
				l-0.862,6.47C229.977,31.168,229.572,31.507,229.11,31.505z M230.834,18.568c-0.039,0-0.079-0.002-0.119-0.007
				c-0.512-0.069-0.871-0.54-0.8-1.046l0.857-6.467c0.068-0.512,0.544-0.862,1.048-0.803c0.512,0.069,0.871,0.538,0.805,1.048
				l-0.862,6.468C231.701,18.229,231.297,18.57,230.834,18.568z"/>
		</g>
	</g>
</g>
<g id="frame">
</g>
</svg>
