<?xml version="1.0" encoding="utf-8"?>
<!-- Generator: Adobe Illustrator 16.0.0, SVG Export Plug-In . SVG Version: 6.00 Build 0)  -->
<!DOCTYPE svg PUBLIC "-//W3C//DTD SVG 1.1//EN" "http://www.w3.org/Graphics/SVG/1.1/DTD/svg11.dtd">
<svg version="1.1" id="Layer_1" xmlns="http://www.w3.org/2000/svg" xmlns:xlink="http://www.w3.org/1999/xlink" x="0px" y="0px"
	 width="124px" height="65px" viewBox="-24.868 16.5 124 65" enable-background="new -24.868 16.5 124 65" xml:space="preserve">
<g>
	<path fill="#61A3C1" d="M-16.729,53.59c-0.234,0-0.419,0.181-0.45,0.44l-0.82,6.23l0.82,6.126c0.031,0.258,0.216,0.438,0.45,0.438
		c0.227,0,0.412-0.178,0.448-0.436l0.973-6.128l-0.973-6.232C-16.315,53.771-16.502,53.59-16.729,53.59z"/>
	<path fill="#61A3C1" d="M-10.117,49.73c-0.237,0-0.435,0.191-0.467,0.453c0,0.003-1.104,10.078-1.104,10.078l1.104,9.854
		c0.031,0.265,0.228,0.456,0.467,0.456c0.235,0,0.427-0.187,0.466-0.452l1.254-9.857L-9.65,50.183
		C-9.689,49.917-9.88,49.73-10.117,49.73z"/>
	<path fill="#61A3C1" d="M-3.727,47.333c-0.348,0-0.631,0.276-0.659,0.647l-0.989,12.285l0.989,11.886
		c0.027,0.367,0.312,0.646,0.659,0.646c0.344,0,0.627-0.278,0.658-0.646l1.125-11.886l-1.125-12.286
		C-3.099,47.609-3.383,47.333-3.727,47.333z"/>
	<path fill="#61A3C1" d="M2.624,48.126c-0.406,0-0.729,0.32-0.754,0.743L0.937,60.265L1.87,72.247
		c0.027,0.423,0.349,0.743,0.754,0.743c0.399,0,0.722-0.32,0.752-0.741l1.06-11.984l-1.06-11.399
		C3.348,48.445,3.024,48.126,2.624,48.126z"/>
	<path fill="#61A3C1" d="M8.976,40.888c-0.452,0-0.826,0.371-0.848,0.842L7.249,60.27l0.879,11.981
		c0.022,0.468,0.453,0.837,0.907,0.837c0.45,0,0.907-0.371,0.907-0.841v0.006l0.935-11.983L9.855,41.73
		C9.827,41.259,9.427,40.888,8.976,40.888z"/>
	<path fill="#61A3C1" d="M15.328,36.557c-0.509,0-0.924,0.411-0.947,0.936c0,0.002-0.82,22.78-0.82,22.78l0.822,11.906
		c0.021,0.521,0.436,0.931,0.945,0.931c0.504,0,0.92-0.41,0.945-0.936l0.926-11.901l-0.926-22.78
		C16.247,36.968,15.832,36.557,15.328,36.557z"/>
	<path fill="#61A3C1" d="M21.716,33.632c-0.62,0-1.12,0.494-1.136,1.129l-0.708,25.515l0.708,11.71
		c0.017,0.628,0.625,1.124,1.244,1.124s1.245-0.496,1.245-1.127v-0.002l0.688-11.705l-0.85-25.515
		C22.887,34.128,22.333,33.632,21.716,33.632z"/>
	<path fill="#61A3C1" d="M28.109,35.002c-0.73,0-1.315,0.581-1.33,1.324L26.185,60.28l0.594,11.527
		c0.015,0.733,0.614,1.313,1.345,1.313c0.729,0,1.342-0.58,1.342-1.322v0.01l0.651-11.527l-0.673-23.957
		C29.426,35.583,28.838,35.002,28.109,35.002z"/>
	<path fill="#61A3C1" d="M34.641,27.68c-0.829,0-1.509,0.681-1.521,1.516l-0.623,31.092l0.625,11.283
		c0.011,0.825,0.766,1.504,1.595,1.504c0.827,0,1.595-0.679,1.595-1.518v0.014l0.602-11.283l-0.715-31.093
		C36.185,28.36,35.468,27.68,34.641,27.68z"/>
	<path fill="#61A3C1" d="M80.406,45.568c-1.891,0-3.695,0.383-5.338,1.072C73.97,34.203,63.539,24.445,50.816,24.445
		c-3.113,0-6.134,0.612-8.813,1.649c-1.042,0.402-1.315,0.818-1.315,1.622v43.804c0,0.845,0.652,1.548,1.477,1.632
		c0.034,0.003,38.002,0.022,38.249,0.022c7.622,0,13.796-6.181,13.796-13.803C94.208,51.751,88.028,45.568,80.406,45.568z"/>
</g>
</svg>
